<svg xmlns="http://www.w3.org/2000/svg" viewBox="0 0 32 32" fill="none">
  <defs>
    <linearGradient id="g" x1="0%" y1="0%" x2="100%" y2="100%">
      <stop offset="0%" stop-color="#6366f1" />
      <stop offset="100%" stop-color="#a855f7" />
    </linearGradient>
  </defs>
  <rect width="32" height="32" rx="8" fill="#0f172a" />
  <path d="M10 16a6 6 0 0 1 6-6h3a1.5 1.5 0 0 1 0 3h-3a3 3 0 1 0 0 6h3a1.5 1.5 0 0 1 0 3h-3a6 6 0 0 1-6-6zm12 0a6 6 0 0 1-6 6h-3a1.5 1.5 0 0 1 0-3h3a3 3 0 1 0 0-6h-3a1.5 1.5 0 0 1 0-3h3a6 6 0 0 1 6 6z" fill="url(#g)" />
  <path d="M11 16h10" stroke="url(#g)" stroke-width="2.2" stroke-linecap="round" />
</svg>